#!OML:ASF H:\Dans Jumps\Project 1\Capture day 1\Session 1\subject.ASF
:FULLY-SPECIFIED
:DEGREES
119
root 0.514652 16.8137 -14.7091 14.2977 1.00443 -2.17526
lowerback 8.29748 -0.871464 0.188412
upperback 6.64308 -1.16455 2.38072
thorax 2.28026 -0.628526 2.42641
lowerneck -15.1888 0.790212 -1.4098
upperneck 22.9459 1.48602 -0.110921
head 9.77269 0.546671 0.387293
rclavicle -1.23246e-014 1.37161e-014
rhumerus -37.9499 -20.896 -69.0309
rradius 23.9902
rwrist 34.8454
rhand -16.3542 -25.001
rfingers 7.12502
rthumb 9.85847 -54.7502
lclavicle -1.23246e-014 1.37161e-014
lhumerus -31.857 3.81378 82.3446
lradius 17.9755
lwrist 5.19052
lhand -23.7096 -1.92138
lfingers 7.12502
lthumb 2.7578 28.0405
rfemur -36.947 -1.05676 20.816
rtibia 45.1376
rfoot -27.9124 -11.2932
rtoes 0.895228
lfemur -37.6721 5.90852 -18.9744
ltibia 45.0545
lfoot -25.6668 16.8571
ltoes -10.9022
120
root 0.509639 16.796 -14.6836 14.3828 1.0648 -2.16738
lowerback 8.37116 -0.874468 0.170643
upperback 6.63355 -1.16787 2.38057
thorax 2.23029 -0.630449 2.43783
lowerneck -15.2551 0.770106 -1.41817
upperneck 22.8721 1.45831 -0.100602
head 9.75912 0.534943 0.388822
rclavicle -4.07509e-015 1.51076e-014
rhumerus -37.6099 -20.9415 -69.1664
rradius 23.8102
rwrist 35.0535
rhand -16.3514 -25.0591
rfingers 7.12502
rthumb 9.86116 -54.8082
lclavicle -4.07509e-015 1.51076e-014
lhumerus -31.4983 3.99286 82.2691
lradius 17.8234
lwrist 4.9272
lhand -23.6938 -1.84995
lfingers 7.12502
lthumb 2.77303 28.1118
rfemur -37.1288 -1.0341 20.8308
rtibia 45.5005
rfoot -28.1243 -11.3919
rtoes 0.837996
lfemur -37.8566 5.86152 -18.9548
ltibia 45.4066
lfoot -25.8251 16.9801
ltoes -11.0462
121
root 0.504582 16.7768 -14.6579 14.4722 1.11978 -2.17481
lowerback 8.44193 -0.874202 0.165
upperback 6.62916 -1.16638 2.38423
thorax 2.18697 -0.629695 2.44602
lowerneck -15.3282 0.75531 -1.42598
upperneck 22.7853 1.43786 -0.0902121
head 9.74215 0.526719 0.391175
rclavicle -1.31198e-014 1.37161e-014
rhumerus -37.2078 -20.9605 -69.3493
rradius 23.6457
rwrist 35.1973
rhand -16.2769 -25.2164
rfingers 7.12502
rthumb 9.93298 -54.962
lclavicle -1.31198e-014 1.37161e-014
lhumerus -31.0834 4.20376 82.1895
lradius 17.6491
lwrist 4.5955
lhand -23.6124 -1.67182
lfingers 7.12502
lthumb 2.85165 28.2889
rfemur -37.3255 -1.00685 20.8628
rtibia 45.8835
rfoot -28.3399 -11.4965
rtoes 0.767865
lfemur -38.0624 5.81534 -18.9171
ltibia 45.7872
lfoot -25.9767 17.0887
ltoes -11.1443
122
root 0.499643 16.7559 -14.6313 14.5571 1.16882 -2.1984
lowerback 8.51905 -0.870712 0.173361
upperback 6.62016 -1.15966 2.39265
thorax 2.13494 -0.625876 2.45108
lowerneck -15.4034 0.741531 -1.42533
upperneck 22.7065 1.41905 -0.0889308
head 9.72859 0.518854 0.38919
rclavicle -8.94531e-015 -9.34288e-015
rhumerus -36.7748 -20.9302 -69.5704
rradius 23.5081
rwrist 35.2594
rhand -16.1435 -25.4559
rfingers 7.12502
rthumb 10.0617 -55.1954
lclavicle -8.94531e-015 -9.34288e-015
lhumerus -30.6456 4.42 82.1227
lradius 17.4644
lwrist 4.25023
lhand -23.547 -1.52407
lfingers 7.12502
lthumb 2.91482 28.4358
rfemur -37.5247 -0.979198 20.9128
rtibia 46.2886
rfoot -28.5668 -11.6016
rtoes 0.693814
lfemur -38.2778 5.77537 -18.8617
ltibia 46.1981
lfoot -26.1244 17.1813
ltoes -11.1978
123
root 0.4947 16.7331 -14.6041 14.6445 1.21262 -2.23361
lowerback 8.6106 -0.86588 0.18599
upperback 6.59881 -1.15043 2.40753
thorax 2.06204 -0.620643 2.46061
lowerneck -15.4699 0.731193 -1.4319
upperneck 22.6293 1.40584 -0.0840275
head 9.71379 0.513366 0.390341
rclavicle 9.64106e-015 5.1684e-015
rhumerus -36.3139 -20.8742 -69.8062
rradius 23.3685
rwrist 35.3221
rhand -16.0042 -25.6948
rfingers 7.12502
rthumb 10.1961 -55.4277
lclavicle 9.64106e-015 5.1684e-015
lhumerus -30.1872 4.66008 82.0634
lradius 17.2661
lwrist 3.87003
lhand -23.4919 -1.42246
lfingers 7.12502
lthumb 2.96808 28.5366
rfemur -37.7388 -0.952321 20.9769
rtibia 46.7197
rfoot -28.7978 -11.7175
rtoes 0.590938
lfemur -38.5114 5.7345 -18.7925
ltibia 46.6408
lfoot -26.2701 17.2671
ltoes -11.2194
124
root 0.48972 16.7084 -14.5762 14.7345 1.25257 -2.27396
lowerback 8.71492 -0.859672 0.197228
upperback 6.56388 -1.13897 2.42773
thorax 1.96802 -0.614282 2.47659
lowerneck -15.5326 0.723252 -1.4457
upperneck 22.5603 1.39707 -0.0758878
head 9.70109 0.509608 0.394407
rclavicle 8.24956e-015 -5.36719e-015
rhumerus -35.8382 -20.8157 -70.0349
rradius 23.2055
rwrist 35.479
rhand -15.9542 -25.8477
rfingers 7.12502
rthumb 10.2444 -55.5782
lclavicle 8.24956e-015 -5.36719e-015
lhumerus -29.7129 4.9208 82.0147
lradius 17.0607
lwrist 3.46479
lhand -23.4534 -1.36279
lfingers 7.12502
lthumb 3.00527 28.5958
rfemur -37.9682 -0.930852 21.0487
rtibia 47.178
rfoot -29.0313 -11.8412
rtoes 0.478722
lfemur -38.7611 5.69209 -18.7168
ltibia 47.1131
lfoot -26.4171 17.3509
ltoes -11.2254
125
root 0.484631 16.6817 -14.5478 14.8283 1.283 -2.3102
lowerback 8.83049 -0.850844 0.197219
upperback 6.51758 -1.12427 2.44846
thorax 1.85609 -0.606551 2.49946
lowerneck -15.5928 0.714265 -1.46701
upperneck 22.4925 1.38712 -0.060973
head 9.68827 0.505432 0.401922
rclavicle 9.0447e-015 -1.17283e-014
rhumerus -35.3389 -20.7525 -70.2698
rradius 23.0353
rwrist 35.6637
rhand -15.9243 -25.9744
rfingers 7.12502
rthumb 10.2732 -55.7035
lclavicle 9.0447e-015 -1.17283e-014
lhumerus -29.2145 5.20348 81.9725
lradius 16.8494
lwrist 3.03623
lhand -23.411 -1.31629
lfingers 7.12502
lthumb 3.04622 28.6417
rfemur -38.2175 -0.909429 21.1163
rtibia 47.6659
rfoot -29.2595 -11.9712
rtoes 0.377534
lfemur -39.025 5.64659 -18.6446
ltibia 47.6129
lfoot -26.5636 17.4429
ltoes -11.2095
126
root 0.479511 16.6534 -14.5181 14.9095 1.30623 -2.33217
lowerback 8.95318 -0.839156 0.182171
upperback 6.47083 -1.10662 2.4663
thorax 1.73994 -0.597734 2.5277
lowerneck -15.6875 0.703773 -1.47892
upperneck 22.4491 1.37601 -0.0558563
head 9.6907 0.500112 0.404616
rclavicle -4.96962e-015 9.93923e-015
rhumerus -34.8175 -20.7184 -70.4908
rradius 22.8419
rwrist 35.916
rhand -15.976 -25.9979
rfingers 7.12502
rthumb 10.2234 -55.7294
lclavicle -4.96962e-015 9.93923e-015
lhumerus -28.6826 5.48384 81.9505
lradius 16.6249
lwrist 2.61589
lhand -23.4019 -1.34639
lfingers 7.12502
lthumb 3.05495 28.6115
rfemur -38.4638 -0.894712 21.1685
rtibia 48.1824
rfoot -29.4801 -12.103
rtoes 0.303973
lfemur -39.2778 5.59978 -18.5872
ltibia 48.1361
lfoot -26.7154 17.5464
ltoes -11.1704
127
root 0.474152 16.6235 -14.4878 14.9914 1.32041 -2.33474
lowerback 9.0836 -0.823682 0.147424
upperback 6.42064 -1.0851 2.4766
thorax 1.61605 -0.587353 2.55903
lowerneck -15.7857 0.69217 -1.49519
upperneck 22.3984 1.3629 -0.0440846
head 9.69117 0.494328 0.410076
rclavicle -1.56046e-014 8.34896e-015
rhumerus -34.2612 -20.7101 -70.7208
rradius 22.6361
rwrist 36.1964
rhand -16.0861 -25.9768
rfingers 7.12502
rthumb 10.1171 -55.7136
lclavicle -1.56046e-014 8.34896e-015
lhumerus -28.1034 5.78556 81.9307
lradius 16.3901
lwrist 2.15712
lhand -23.3509 -1.30431
lfingers 7.12502
lthumb 3.10427 28.6528
rfemur -38.7258 -0.881505 21.1993
rtibia 48.7274
rfoot -29.6852 -12.2333
rtoes 0.254878
lfemur -39.5357 5.54651 -18.5497
ltibia 48.6806
lfoot -26.8664 17.661
ltoes -11.0928
128
root 0.46869 16.5917 -14.4564 15.0661 1.32761 -2.32189
lowerback 9.21345 -0.803652 0.102963
upperback 6.37154 -1.05837 2.47979
thorax 1.49342 -0.574474 2.58798
lowerneck -15.9181 0.68034 -1.49794
upperneck 22.3705 1.34926 -0.0419852
head 9.70631 0.488067 0.410132
rclavicle -2.28602e-015 -2.48481e-014
rhumerus -33.6782 -20.7331 -70.9528
rradius 22.4243
rwrist 36.4847
rhand -16.2337 -25.9222
rfingers 7.12502
rthumb 9.97473 -55.6659
lclavicle -2.28602e-015 -2.48481e-014
lhumerus -27.4739 6.08585 81.9254
lradius 16.1354
lwrist 1.68783
lhand -23.331 -1.32538
lfingers 7.12502
lthumb 3.12349 28.6315
rfemur -38.9911 -0.873013 21.213
rtibia 49.299
rfoot -29.8787 -12.3497
rtoes 0.235248
lfemur -39.7894 5.49308 -18.5294
ltibia 49.2457
lfoot -27.0096 17.7846
ltoes -10.9783
129
root 0.463138 16.5581 -14.4239 15.1416 1.32619 -2.30136
lowerback 9.34301 -0.778607 0.0543208
upperback 6.3188 -1.02542 2.47891
thorax 1.36689 -0.558416 2.61451
lowerneck -16.0678 0.668653 -1.4985
upperneck 22.3492 1.33614 -0.0417241
head 9.72704 0.481933 0.409362
rclavicle -1.23246e-014 1.76918e-014
rhumerus -33.0643 -20.7804 -71.192
rradius 22.2109
rwrist 36.7677
rhand -16.4024 -25.8511
rfingers 7.12502
rthumb 9.81199 -55.6025
lclavicle -1.23246e-014 1.76918e-014
lhumerus -26.79 6.40469 81.9282
lradius 15.8557
lwrist 1.17982
lhand -23.3155 -1.37267
lfingers 7.12502
lthumb 3.13839 28.584
rfemur -39.2684 -0.865423 21.2177
rtibia 49.8956
rfoot -30.0629 -12.4473
rtoes 0.222604
lfemur -40.0506 5.44425 -18.5193
ltibia 49.8328
lfoot -27.1372 17.906
ltoes -10.8118
130
root 0.457773 16.5226 -14.3901 15.2134 1.31639 -2.2823
lowerback 9.47762 -0.748005 0.0112501
upperback 6.25584 -0.984647 2.4787
thorax 1.22648 -0.538077 2.63801
lowerneck -16.23 0.65693 -1.49661
upperneck 22.3473 1.32466 -0.0490814
head 9.75707 0.475699 0.405887
rclavicle 7.25564e-015 3.77691e-015
rhumerus -32.4409 -20.8132 -71.4403
rradius 22.0179
rwrist 36.9905
rhand -16.561 -25.7904
rfingers 7.12502
rthumb 9.65893 -55.5489
lclavicle 7.25564e-015 3.77691e-015
lhumerus -26.0709 6.74878 81.9419
lradius 15.5516
lwrist 0.628247
lhand -23.3417 -1.5299
lfingers 7.12502
lthumb 3.11311 28.4271
rfemur -39.5482 -0.861845 21.223
rtibia 50.5151
rfoot -30.2497 -12.518
rtoes 0.201146
lfemur -40.3159 5.405 -18.5105
ltibia 50.4452
lfoot -27.2496 18.0145
ltoes -10.6172
